<svg width="110" height="55" viewBox="0 0 110 55" fill="none" xmlns="http://www.w3.org/2000/svg">
<g filter="url(#filter0_d_10357_65)">
<path d="M16.6496 40H4.17851V19.3848H16.3858L16.034 23.536L10.0007 23.3601V27.3354H14.7499V31.4514L10.0007 31.0996V35.7785L16.6496 35.6026V40Z" fill="#F5B921"/>
<path d="M24.1218 40H18.4404V28.6194L17.385 27.9686V26.0865L21.1668 25.0487H24.157V27.3178L24.3681 27.0539C24.5088 26.8663 24.714 26.6435 24.9837 26.3855C25.2652 26.1276 25.5759 25.8754 25.916 25.6292C26.2561 25.3712 26.6606 25.1543 27.1297 24.9784C27.6105 24.7907 28.0795 24.6969 28.5369 24.6969C30.1434 24.6969 31.275 25.1367 31.9317 26.0162C32.6001 26.8956 32.9343 28.3673 32.9343 30.4312C32.9343 30.5015 32.9343 30.6071 32.9343 30.7478C32.9226 30.8885 32.9167 30.9999 32.9167 31.082V40H27.1121V30.5719C27.1473 29.4696 26.6782 28.9185 25.7049 28.9185C25.6346 28.9185 25.5642 28.9243 25.4938 28.9361C25.4352 28.9478 25.3766 28.9595 25.3179 28.9712C25.271 28.983 25.2124 29.0064 25.1421 29.0416C25.0834 29.065 25.0306 29.0885 24.9837 29.1119C24.9368 29.1237 24.8841 29.153 24.8254 29.1999C24.7668 29.2351 24.7199 29.2644 24.6847 29.2878C24.6495 29.3113 24.5968 29.3523 24.5264 29.411C24.4678 29.4579 24.4209 29.4931 24.3857 29.5165C24.3622 29.54 24.3153 29.581 24.245 29.6396C24.1863 29.6865 24.1453 29.7217 24.1218 29.7452V40ZM43.0347 30.9061C43.0347 29.4168 42.9584 28.3615 42.806 27.7399C42.6536 27.1184 42.3721 26.8077 41.9617 26.8077C41.6099 26.8077 41.3226 26.8722 41.0998 27.0012C40.877 27.1184 40.7128 27.3119 40.6073 27.5816C40.5017 27.8396 40.4314 28.1093 40.3962 28.3908C40.3728 28.6605 40.361 29.0064 40.361 29.4286V30.9061H43.0347ZM41.6275 40.3694C40.3141 40.3694 39.1708 40.17 38.1975 39.7713C37.2359 39.3726 36.4737 38.8156 35.9108 38.1003C35.3597 37.385 34.9551 36.5817 34.6971 35.6905C34.4391 34.7876 34.3102 33.785 34.3102 32.6827C34.3102 30.0559 34.9786 28.0683 36.3154 26.7197C37.6522 25.3712 39.5226 24.6969 41.9265 24.6969C44.2366 24.6969 45.8901 25.2422 46.8868 26.3328C47.8836 27.4116 48.382 29.153 48.382 31.5569V33.5094H40.3434V33.8436C40.3434 34.5355 40.4138 35.1042 40.5545 35.5498C40.707 35.9954 40.9239 36.3237 41.2053 36.5348C41.4868 36.7459 41.7741 36.8866 42.0672 36.957C42.3604 37.0273 42.7181 37.0625 43.1402 37.0625C43.5506 37.0625 43.9904 37.0097 44.4594 36.9042C44.9402 36.7987 45.421 36.6345 45.9018 36.4117C46.3943 36.1889 46.8047 35.925 47.1331 35.6202L48.1709 37.3967C47.737 38.1003 47.0979 38.6925 46.2536 39.1733C45.421 39.6423 44.6177 39.959 43.8438 40.1231C43.0698 40.2873 42.3311 40.3694 41.6275 40.3694ZM55.9689 40H50.2874V28.6194L49.232 27.9686V25.981L53.0138 25.0487H54.4386L54.9487 29.2351C55.4295 26.3621 56.9715 24.9256 59.5748 24.9256C59.868 24.9256 60.1728 24.9784 60.4895 25.0839L59.8914 31.3458C59.6452 31.123 59.1057 31.0116 58.2732 31.0116C57.0771 31.0116 56.309 31.3283 55.9689 31.9615V40ZM68.6543 46.2092C67.7396 46.2092 66.7077 45.9981 65.5585 45.5759C64.4093 45.1655 63.6646 44.7727 63.3246 44.3974L64.4327 41.9876C64.7259 42.2104 65.2008 42.4157 65.8575 42.6033C66.5142 42.7909 67.0771 42.8847 67.5461 42.8847C68.0152 42.8847 68.4197 42.8202 68.7598 42.6912C69.1116 42.574 69.3813 42.4215 69.5689 42.2339C69.7566 42.058 69.909 41.8352 70.0263 41.5655C70.1435 41.3075 70.2139 41.073 70.2373 40.8619C70.2725 40.6508 70.296 40.4163 70.3077 40.1583V38.6632C69.311 39.6951 68.0973 40.2111 66.6666 40.2111C64.7318 40.2111 63.3128 39.5485 62.4099 38.2234C61.507 36.8983 61.0555 35.0573 61.0555 32.7003C61.0555 31.598 61.1786 30.5836 61.4249 29.6572C61.6711 28.7191 62.0288 27.8983 62.4979 27.1947C62.9786 26.4794 63.6001 25.9223 64.3624 25.5236C65.1246 25.1132 65.9865 24.908 66.9481 24.908C68.4021 24.908 69.6627 25.2305 70.7299 25.8754L71.0289 25.0487H73.7201L77.027 25.207V26.8605L75.9716 27.5992V39.3492C75.9716 43.9225 73.5325 46.2092 68.6543 46.2092ZM69.2171 37.0097C69.5689 37.0097 69.9325 36.9101 70.3077 36.7107V27.4409C70.0263 27.3823 69.7683 27.353 69.5338 27.353C67.9741 27.3647 67.1885 28.5667 67.1767 30.9589V33.6853C67.1767 34.4358 67.2764 35.0807 67.4758 35.6202C67.8275 36.5465 68.408 37.0097 69.2171 37.0097ZM85.6359 46.0509C84.4281 46.0509 83.2906 45.875 82.2235 45.5232C81.1564 45.1714 80.3766 44.6965 79.8841 44.0984L80.7987 42.1987C81.4789 42.5857 82.5577 42.7792 84.0353 42.7792C84.5043 42.7792 84.9089 42.7264 85.249 42.6209C85.589 42.5153 85.8939 42.3277 86.1636 42.058C86.4333 41.8 86.6385 41.4306 86.7793 40.9498C86.92 40.4691 86.9962 39.8769 87.0079 39.1733V37.6606L86.832 37.942C86.7148 38.1296 86.533 38.3583 86.2867 38.628C86.0522 38.886 85.7825 39.1498 85.4776 39.4195C85.1727 39.6775 84.7975 39.9003 84.3519 40.0879C83.918 40.2756 83.4724 40.3694 83.0151 40.3694C81.2678 40.3694 80.0365 39.8827 79.3212 38.9094C78.6059 37.9244 78.2482 36.271 78.2482 33.9491V27.7048L77.615 27.0715V25.0487H84.0177V35.0573C84.0177 35.5967 84.0998 35.9954 84.2639 36.2534C84.4398 36.4996 84.7858 36.6228 85.3017 36.6228C85.4542 36.6228 85.6066 36.5993 85.7591 36.5524C85.9115 36.4938 86.0581 36.4176 86.1988 36.3237C86.3512 36.2299 86.5096 36.1127 86.6737 35.9719V27.7048L85.7063 27.0715V25.0487H92.408V37.942C92.408 40.5336 91.8568 42.5329 90.7545 43.9401C89.6523 45.3473 87.946 46.0509 85.6359 46.0509Z" fill="white"/>
</g>
<path d="M94.9761 0V3.7232H96.0792V0H94.9761ZM99.6338 0V3.7232H100.737V0H99.6338ZM93.5053 4.9417V6.02481H102.208V4.9417H93.5053ZM94.4858 7.24331V9.56524L96.4469 12.8146V14.5543H99.2661V12.8146L101.227 9.56524V7.24331H94.4858ZM97.1088 15.7728C97.0292 16.1655 96.9311 16.5513 96.8269 16.9304C96.6553 17.5667 96.4653 18.1692 96.3795 18.7649C96.0547 18.704 95.7483 18.6769 95.4603 18.6769C95.1354 18.6769 94.8229 18.7108 94.5287 18.7785C94.5532 18.8055 94.5839 18.8394 94.6084 18.8732C94.8535 19.1711 95.0006 19.5163 95.0864 19.8886C95.448 19.848 95.8525 19.8819 96.3734 20.0037C96.4653 20.5047 96.6676 20.9311 96.9127 21.2832C97.2375 21.7502 97.6236 22.0955 97.9668 22.4272C98.31 22.7521 98.6042 23.0635 98.7942 23.3885C98.8984 23.5712 98.978 23.754 99.0209 23.9639C99.1312 23.754 99.2722 23.5577 99.4438 23.3817C99.5786 23.2395 99.7257 23.1244 99.8789 23.0297C99.8299 22.9281 99.7809 22.8266 99.7257 22.7318C99.4254 22.2241 99.0454 21.845 98.69 21.5065C98.3345 21.1681 98.0097 20.8567 97.7891 20.5385C97.5623 20.2271 97.4398 19.9225 97.4275 19.4825C97.4214 19.1305 97.5317 18.6092 97.691 17.9864C98.0588 17.9323 98.5797 17.8781 99.168 17.8781C99.4744 17.8781 99.787 17.8984 100.093 17.939C100.075 17.5261 100.13 17.1064 100.308 16.7273C99.9157 16.6732 99.5296 16.6596 99.168 16.6596C98.7513 16.6596 98.359 16.6867 98.0281 16.7205C98.1078 16.4159 98.1752 16.0978 98.2365 15.7728H97.1088ZM102.729 16.5784C102.686 16.5852 102.643 16.5852 102.6 16.5852C102.539 16.5919 102.477 16.5987 102.422 16.6055C103.599 17.323 104.42 18.1963 105.045 19.1372C103.887 18.5821 103.237 17.7901 101.197 17.7224C101.19 17.8578 101.197 18.0135 101.227 18.1827C101.307 18.6566 101.534 19.1711 101.767 19.4825V19.4893C102.435 20.376 104.261 21.1275 105.909 21.5269C106.767 21.7367 107.54 21.8653 108.11 21.9466C107.95 21.5269 107.748 21.0191 107.497 20.4641C106.914 19.1914 106.069 17.8172 105.395 17.3907C104.788 17.0049 103.924 16.6732 103.152 16.5987C103.004 16.5852 102.864 16.5784 102.729 16.5784ZM92.0099 18.8935H91.728C91.6054 18.8935 91.4767 18.9003 91.348 18.9138C90.3123 19.0154 89.1846 19.4622 88.3695 19.9767C87.4362 20.5724 86.3416 22.4001 85.5829 24.0789C85.187 24.959 84.8812 25.751 84.6667 26.3399C85.4027 26.2452 86.4513 26.0895 87.8168 25.751C89.9691 25.223 92.3592 24.2549 93.2724 23.0161C93.6033 22.5761 93.9097 21.8721 94.0139 21.2155C94.0446 21.0327 94.063 20.8567 94.063 20.6874C91.1213 20.8905 90.11 22.0887 88.3512 22.9417C89.3256 21.4592 90.5942 20.0782 92.4144 18.9409C92.3102 18.9206 92.1999 18.9071 92.0896 18.9003C92.065 18.8935 92.0344 18.8868 92.0099 18.8935ZM101.393 23.8217C100.909 23.8285 100.504 23.9639 100.191 24.2753C100.155 24.3091 100.124 24.3565 100.087 24.3971C102.048 24.9928 104.506 26.1301 105.094 27.4772C103.764 26.8409 101.779 26.2249 99.7686 25.8458C99.7993 26.4076 99.9892 26.9695 100.234 27.2674C101.239 28.5332 103.924 29.0206 106.363 29.0206C107.779 29.0206 108.937 28.9123 109.795 28.804C109.452 28.452 109.066 28.0661 108.581 27.6194C107.411 26.5227 105.928 25.3245 104.917 24.898C104.077 24.546 103.103 24.106 102.232 23.9232C102.012 23.8759 101.803 23.842 101.607 23.8285C101.534 23.8217 101.466 23.8217 101.393 23.8217ZM98.6777 26.0759C98.5306 26.4686 98.3529 26.8815 98.1691 27.335C97.7401 28.3911 59.5385 62.1923 93.2724 35.1795L98.4081 31.4103C98.4081 29.8939 98.7697 28.8379 99.1803 27.836C99.1864 27.8224 99.1925 27.8021 99.1987 27.7886C98.8984 27.2877 98.7268 26.6919 98.6777 26.0759Z" fill="#FFBB1C"/>
<defs>
<filter id="filter0_d_10357_65" x="0.178467" y="19.3848" width="96.2295" height="34.8242" filterUnits="userSpaceOnUse" color-interpolation-filters="sRGB">
<feFlood flood-opacity="0" result="BackgroundImageFix"/>
<feColorMatrix in="SourceAlpha" type="matrix" values="0 0 0 0 0 0 0 0 0 0 0 0 0 0 0 0 0 0 127 0" result="hardAlpha"/>
<feOffset dy="4"/>
<feGaussianBlur stdDeviation="2"/>
<feComposite in2="hardAlpha" operator="out"/>
<feColorMatrix type="matrix" values="0 0 0 0 0 0 0 0 0 0 0 0 0 0 0 0 0 0 0.25 0"/>
<feBlend mode="normal" in2="BackgroundImageFix" result="effect1_dropShadow_10357_65"/>
<feBlend mode="normal" in="SourceGraphic" in2="effect1_dropShadow_10357_65" result="shape"/>
</filter>
</defs>
</svg>
